<svg width="32" height="32" version="1.1" viewBox="0 0 8.4667 8.4667" xmlns="http://www.w3.org/2000/svg"><g transform="matrix(1.1429 0 0 1.1429 -.60476 -.60476)"><path d="m7.9375 4.2333a3.7042 3.7042 0 0 1-3.7042 3.7042 3.7042 3.7042 0 0 1-3.7042-3.7042 3.7042 3.7042 0 0 1 3.7042-3.7042 3.7042 3.7042 0 0 1 3.7042 3.7042z" fill="#9d4c18" stroke-width=".24911"/><path d="m4.2333 1.0583a3.175 3.175 0 0 0-3.175 3.175 3.175 3.175 0 0 0 3.175 3.175 3.175 3.175 0 0 0 3.175-3.175 3.175 3.175 0 0 0-3.175-3.175zm-0.2434 0.79375h0.48576v0.55966c0.3535 0.049098 0.60433 0.22115 0.81545 0.447l-0.36329 0.41238c-0.2013-0.18657-0.3785-0.2899-0.6289-0.2899-0.28968 0-0.45165 0.13769-0.45165 0.40773 0 0.60881 1.4929 0.51561 1.4929 1.6154 0 0.53517-0.29992 0.93275-0.86455 1.0408v0.56947h-0.48576v-0.54984c-0.33387-0.039278-0.71182-0.19169-0.97203-0.42736l0.31884-0.48576c0.27004 0.21112 0.53043 0.33383 0.81029 0.33383 0.34368 0 0.50074-0.15216 0.50074-0.43202 0-0.66282-1.4924-0.60425-1.4924-1.6304 0-0.53517 0.31905-0.90329 0.83457-1.0015z" fill="#eda874" stroke-width=".21352"/></g></svg>
